<mxfile host="app.diagrams.net" modified="2022-08-30T22:36:09.580Z" agent="5.0 (X11)" etag="CDNT6yW3MDSUFLexnxTz" version="20.2.7" type="github">
  <diagram id="pILta1R22qJDjGLz_dcx" name="Page-1">
    <mxGraphModel dx="868" dy="448" grid="1" gridSize="10" guides="1" tooltips="1" connect="1" arrows="1" fold="1" page="1" pageScale="1" pageWidth="850" pageHeight="1100" math="0" shadow="0">
      <root>
        <mxCell id="0" />
        <mxCell id="1" parent="0" />
        <mxCell id="N67g6IdkrzltrkVz4wu8-3" value="" style="edgeStyle=orthogonalEdgeStyle;rounded=0;orthogonalLoop=1;jettySize=auto;html=1;" edge="1" parent="1" source="N67g6IdkrzltrkVz4wu8-1" target="N67g6IdkrzltrkVz4wu8-2">
          <mxGeometry relative="1" as="geometry" />
        </mxCell>
        <mxCell id="N67g6IdkrzltrkVz4wu8-1" value="start" style="ellipse;whiteSpace=wrap;html=1;" vertex="1" parent="1">
          <mxGeometry x="130" y="40" width="120" height="80" as="geometry" />
        </mxCell>
        <mxCell id="N67g6IdkrzltrkVz4wu8-5" value="" style="edgeStyle=orthogonalEdgeStyle;rounded=0;orthogonalLoop=1;jettySize=auto;html=1;" edge="1" parent="1" source="N67g6IdkrzltrkVz4wu8-2" target="N67g6IdkrzltrkVz4wu8-4">
          <mxGeometry relative="1" as="geometry" />
        </mxCell>
        <mxCell id="N67g6IdkrzltrkVz4wu8-8" value="" style="edgeStyle=orthogonalEdgeStyle;rounded=0;orthogonalLoop=1;jettySize=auto;html=1;" edge="1" parent="1" source="N67g6IdkrzltrkVz4wu8-2" target="N67g6IdkrzltrkVz4wu8-7">
          <mxGeometry relative="1" as="geometry" />
        </mxCell>
        <mxCell id="N67g6IdkrzltrkVz4wu8-2" value="visa or mastercard?" style="rhombus;whiteSpace=wrap;html=1;" vertex="1" parent="1">
          <mxGeometry x="145" y="200" width="90" height="90" as="geometry" />
        </mxCell>
        <mxCell id="N67g6IdkrzltrkVz4wu8-13" value="" style="edgeStyle=orthogonalEdgeStyle;rounded=0;orthogonalLoop=1;jettySize=auto;html=1;" edge="1" parent="1" source="N67g6IdkrzltrkVz4wu8-4" target="N67g6IdkrzltrkVz4wu8-12">
          <mxGeometry relative="1" as="geometry" />
        </mxCell>
        <mxCell id="N67g6IdkrzltrkVz4wu8-4" value="stacked Widget increments by 1" style="whiteSpace=wrap;html=1;" vertex="1" parent="1">
          <mxGeometry x="130" y="385" width="120" height="60" as="geometry" />
        </mxCell>
        <mxCell id="N67g6IdkrzltrkVz4wu8-6" value="Visa" style="text;html=1;align=center;verticalAlign=middle;resizable=0;points=[];autosize=1;strokeColor=none;fillColor=none;" vertex="1" parent="1">
          <mxGeometry x="185" y="305" width="50" height="30" as="geometry" />
        </mxCell>
        <mxCell id="N67g6IdkrzltrkVz4wu8-11" value="" style="edgeStyle=orthogonalEdgeStyle;rounded=0;orthogonalLoop=1;jettySize=auto;html=1;" edge="1" parent="1" source="N67g6IdkrzltrkVz4wu8-7" target="N67g6IdkrzltrkVz4wu8-10">
          <mxGeometry relative="1" as="geometry" />
        </mxCell>
        <mxCell id="N67g6IdkrzltrkVz4wu8-7" value="Stacked Widget increments by 2" style="whiteSpace=wrap;html=1;" vertex="1" parent="1">
          <mxGeometry x="300" y="215" width="120" height="60" as="geometry" />
        </mxCell>
        <mxCell id="N67g6IdkrzltrkVz4wu8-9" value="&lt;div&gt;Mastercard&lt;/div&gt;&lt;div&gt;&lt;br&gt;&lt;/div&gt;" style="text;html=1;align=center;verticalAlign=middle;resizable=0;points=[];autosize=1;strokeColor=none;fillColor=none;" vertex="1" parent="1">
          <mxGeometry x="220" y="215" width="80" height="40" as="geometry" />
        </mxCell>
        <mxCell id="N67g6IdkrzltrkVz4wu8-10" value="MASTERCARD" style="shape=process;whiteSpace=wrap;html=1;backgroundOutline=1;" vertex="1" parent="1">
          <mxGeometry x="500" y="215" width="120" height="60" as="geometry" />
        </mxCell>
        <mxCell id="N67g6IdkrzltrkVz4wu8-12" value="VISA" style="shape=process;whiteSpace=wrap;html=1;backgroundOutline=1;" vertex="1" parent="1">
          <mxGeometry x="130" y="525" width="120" height="60" as="geometry" />
        </mxCell>
        <mxCell id="N67g6IdkrzltrkVz4wu8-17" value="" style="edgeStyle=orthogonalEdgeStyle;rounded=0;orthogonalLoop=1;jettySize=auto;html=1;" edge="1" parent="1" source="N67g6IdkrzltrkVz4wu8-14" target="N67g6IdkrzltrkVz4wu8-16">
          <mxGeometry relative="1" as="geometry" />
        </mxCell>
        <mxCell id="N67g6IdkrzltrkVz4wu8-14" value="VISA" style="shape=process;whiteSpace=wrap;html=1;backgroundOutline=1;" vertex="1" parent="1">
          <mxGeometry x="820" y="50" width="120" height="60" as="geometry" />
        </mxCell>
        <mxCell id="N67g6IdkrzltrkVz4wu8-19" value="" style="edgeStyle=orthogonalEdgeStyle;rounded=0;orthogonalLoop=1;jettySize=auto;html=1;" edge="1" parent="1" source="N67g6IdkrzltrkVz4wu8-16" target="N67g6IdkrzltrkVz4wu8-18">
          <mxGeometry relative="1" as="geometry" />
        </mxCell>
        <mxCell id="N67g6IdkrzltrkVz4wu8-16" value="input card number" style="shape=parallelogram;perimeter=parallelogramPerimeter;whiteSpace=wrap;html=1;fixedSize=1;" vertex="1" parent="1">
          <mxGeometry x="815" y="190" width="130" height="70" as="geometry" />
        </mxCell>
        <mxCell id="N67g6IdkrzltrkVz4wu8-21" value="" style="edgeStyle=orthogonalEdgeStyle;rounded=0;orthogonalLoop=1;jettySize=auto;html=1;" edge="1" parent="1" source="N67g6IdkrzltrkVz4wu8-18" target="N67g6IdkrzltrkVz4wu8-20">
          <mxGeometry relative="1" as="geometry">
            <Array as="points">
              <mxPoint x="1010" y="363" />
              <mxPoint x="1010" y="363" />
            </Array>
          </mxGeometry>
        </mxCell>
        <mxCell id="N67g6IdkrzltrkVz4wu8-25" value="" style="edgeStyle=orthogonalEdgeStyle;rounded=0;orthogonalLoop=1;jettySize=auto;html=1;" edge="1" parent="1" source="N67g6IdkrzltrkVz4wu8-18" target="N67g6IdkrzltrkVz4wu8-24">
          <mxGeometry relative="1" as="geometry" />
        </mxCell>
        <mxCell id="N67g6IdkrzltrkVz4wu8-18" value="does it contain letters?" style="rhombus;whiteSpace=wrap;html=1;" vertex="1" parent="1">
          <mxGeometry x="830" y="310" width="100" height="105" as="geometry" />
        </mxCell>
        <mxCell id="N67g6IdkrzltrkVz4wu8-22" style="edgeStyle=orthogonalEdgeStyle;rounded=0;orthogonalLoop=1;jettySize=auto;html=1;entryX=1;entryY=0.5;entryDx=0;entryDy=0;" edge="1" parent="1" source="N67g6IdkrzltrkVz4wu8-20" target="N67g6IdkrzltrkVz4wu8-16">
          <mxGeometry relative="1" as="geometry">
            <mxPoint x="1060" y="220" as="targetPoint" />
            <mxPoint x="1060" y="330" as="sourcePoint" />
            <Array as="points">
              <mxPoint x="1100" y="220" />
              <mxPoint x="935" y="220" />
            </Array>
          </mxGeometry>
        </mxCell>
        <mxCell id="N67g6IdkrzltrkVz4wu8-20" value="display error input contains letters" style="whiteSpace=wrap;html=1;" vertex="1" parent="1">
          <mxGeometry x="1030" y="335" width="120" height="60" as="geometry" />
        </mxCell>
        <mxCell id="N67g6IdkrzltrkVz4wu8-23" value="&lt;div&gt;yes&lt;/div&gt;&lt;div&gt;&lt;br&gt;&lt;/div&gt;" style="text;html=1;align=center;verticalAlign=middle;resizable=0;points=[];autosize=1;strokeColor=none;fillColor=none;" vertex="1" parent="1">
          <mxGeometry x="950" y="330" width="40" height="40" as="geometry" />
        </mxCell>
        <mxCell id="N67g6IdkrzltrkVz4wu8-27" value="" style="edgeStyle=orthogonalEdgeStyle;rounded=0;orthogonalLoop=1;jettySize=auto;html=1;" edge="1" parent="1" source="N67g6IdkrzltrkVz4wu8-24" target="N67g6IdkrzltrkVz4wu8-26">
          <mxGeometry relative="1" as="geometry" />
        </mxCell>
        <mxCell id="N67g6IdkrzltrkVz4wu8-31" value="" style="edgeStyle=orthogonalEdgeStyle;rounded=0;orthogonalLoop=1;jettySize=auto;html=1;" edge="1" parent="1" source="N67g6IdkrzltrkVz4wu8-24" target="N67g6IdkrzltrkVz4wu8-30">
          <mxGeometry relative="1" as="geometry" />
        </mxCell>
        <mxCell id="N67g6IdkrzltrkVz4wu8-24" value="is it 16 digits long?" style="rhombus;whiteSpace=wrap;html=1;" vertex="1" parent="1">
          <mxGeometry x="835" y="504" width="90" height="92.5" as="geometry" />
        </mxCell>
        <mxCell id="N67g6IdkrzltrkVz4wu8-28" style="edgeStyle=orthogonalEdgeStyle;rounded=0;orthogonalLoop=1;jettySize=auto;html=1;entryX=0.558;entryY=0.983;entryDx=0;entryDy=0;entryPerimeter=0;" edge="1" parent="1" source="N67g6IdkrzltrkVz4wu8-26" target="N67g6IdkrzltrkVz4wu8-20">
          <mxGeometry relative="1" as="geometry">
            <Array as="points">
              <mxPoint x="1100" y="394" />
            </Array>
          </mxGeometry>
        </mxCell>
        <mxCell id="N67g6IdkrzltrkVz4wu8-26" value="display error it is not 16 digits long" style="whiteSpace=wrap;html=1;" vertex="1" parent="1">
          <mxGeometry x="1030" y="520" width="120" height="60" as="geometry" />
        </mxCell>
        <mxCell id="N67g6IdkrzltrkVz4wu8-29" value="no" style="text;html=1;align=center;verticalAlign=middle;resizable=0;points=[];autosize=1;strokeColor=none;fillColor=none;" vertex="1" parent="1">
          <mxGeometry x="940" y="515" width="40" height="30" as="geometry" />
        </mxCell>
        <mxCell id="N67g6IdkrzltrkVz4wu8-33" value="" style="edgeStyle=orthogonalEdgeStyle;rounded=0;orthogonalLoop=1;jettySize=auto;html=1;" edge="1" parent="1" source="N67g6IdkrzltrkVz4wu8-30" target="N67g6IdkrzltrkVz4wu8-32">
          <mxGeometry relative="1" as="geometry" />
        </mxCell>
        <mxCell id="N67g6IdkrzltrkVz4wu8-30" value="luhns algorithm check" style="whiteSpace=wrap;html=1;" vertex="1" parent="1">
          <mxGeometry x="820" y="692.75" width="120" height="60" as="geometry" />
        </mxCell>
        <mxCell id="N67g6IdkrzltrkVz4wu8-35" value="" style="edgeStyle=orthogonalEdgeStyle;rounded=0;orthogonalLoop=1;jettySize=auto;html=1;" edge="1" parent="1" source="N67g6IdkrzltrkVz4wu8-32" target="N67g6IdkrzltrkVz4wu8-34">
          <mxGeometry relative="1" as="geometry" />
        </mxCell>
        <mxCell id="N67g6IdkrzltrkVz4wu8-37" value="" style="edgeStyle=orthogonalEdgeStyle;rounded=0;orthogonalLoop=1;jettySize=auto;html=1;" edge="1" parent="1" source="N67g6IdkrzltrkVz4wu8-32" target="N67g6IdkrzltrkVz4wu8-36">
          <mxGeometry relative="1" as="geometry" />
        </mxCell>
        <mxCell id="N67g6IdkrzltrkVz4wu8-32" value="is card valid?" style="rhombus;whiteSpace=wrap;html=1;" vertex="1" parent="1">
          <mxGeometry x="840" y="822.75" width="80" height="80" as="geometry" />
        </mxCell>
        <mxCell id="N67g6IdkrzltrkVz4wu8-40" style="edgeStyle=orthogonalEdgeStyle;rounded=0;orthogonalLoop=1;jettySize=auto;html=1;entryX=0.5;entryY=0;entryDx=0;entryDy=0;" edge="1" parent="1" source="N67g6IdkrzltrkVz4wu8-34" target="N67g6IdkrzltrkVz4wu8-39">
          <mxGeometry relative="1" as="geometry" />
        </mxCell>
        <mxCell id="N67g6IdkrzltrkVz4wu8-34" value="output card isnt valid message" style="whiteSpace=wrap;html=1;" vertex="1" parent="1">
          <mxGeometry x="1040" y="832.75" width="120" height="60" as="geometry" />
        </mxCell>
        <mxCell id="N67g6IdkrzltrkVz4wu8-38" style="edgeStyle=orthogonalEdgeStyle;rounded=0;orthogonalLoop=1;jettySize=auto;html=1;" edge="1" parent="1" source="N67g6IdkrzltrkVz4wu8-36">
          <mxGeometry relative="1" as="geometry">
            <mxPoint x="1040" y="1022.75" as="targetPoint" />
          </mxGeometry>
        </mxCell>
        <mxCell id="N67g6IdkrzltrkVz4wu8-36" value="output card is valid message " style="whiteSpace=wrap;html=1;" vertex="1" parent="1">
          <mxGeometry x="820" y="992.75" width="120" height="60" as="geometry" />
        </mxCell>
        <mxCell id="N67g6IdkrzltrkVz4wu8-39" value="end" style="ellipse;whiteSpace=wrap;html=1;" vertex="1" parent="1">
          <mxGeometry x="1040" y="992.75" width="120" height="60" as="geometry" />
        </mxCell>
        <mxCell id="N67g6IdkrzltrkVz4wu8-41" value="" style="edgeStyle=orthogonalEdgeStyle;rounded=0;orthogonalLoop=1;jettySize=auto;html=1;" edge="1" source="N67g6IdkrzltrkVz4wu8-42" target="N67g6IdkrzltrkVz4wu8-44" parent="1">
          <mxGeometry relative="1" as="geometry" />
        </mxCell>
        <mxCell id="N67g6IdkrzltrkVz4wu8-42" value="MASTERCARD" style="shape=process;whiteSpace=wrap;html=1;backgroundOutline=1;" vertex="1" parent="1">
          <mxGeometry x="1425" y="100" width="120" height="60" as="geometry" />
        </mxCell>
        <mxCell id="N67g6IdkrzltrkVz4wu8-43" value="" style="edgeStyle=orthogonalEdgeStyle;rounded=0;orthogonalLoop=1;jettySize=auto;html=1;" edge="1" source="N67g6IdkrzltrkVz4wu8-44" target="N67g6IdkrzltrkVz4wu8-47" parent="1">
          <mxGeometry relative="1" as="geometry" />
        </mxCell>
        <mxCell id="N67g6IdkrzltrkVz4wu8-44" value="input card number" style="shape=parallelogram;perimeter=parallelogramPerimeter;whiteSpace=wrap;html=1;fixedSize=1;" vertex="1" parent="1">
          <mxGeometry x="1420" y="240" width="130" height="70" as="geometry" />
        </mxCell>
        <mxCell id="N67g6IdkrzltrkVz4wu8-45" value="" style="edgeStyle=orthogonalEdgeStyle;rounded=0;orthogonalLoop=1;jettySize=auto;html=1;" edge="1" source="N67g6IdkrzltrkVz4wu8-47" target="N67g6IdkrzltrkVz4wu8-49" parent="1">
          <mxGeometry relative="1" as="geometry">
            <Array as="points">
              <mxPoint x="1615" y="413" />
              <mxPoint x="1615" y="413" />
            </Array>
          </mxGeometry>
        </mxCell>
        <mxCell id="N67g6IdkrzltrkVz4wu8-46" value="" style="edgeStyle=orthogonalEdgeStyle;rounded=0;orthogonalLoop=1;jettySize=auto;html=1;" edge="1" source="N67g6IdkrzltrkVz4wu8-47" target="N67g6IdkrzltrkVz4wu8-53" parent="1">
          <mxGeometry relative="1" as="geometry" />
        </mxCell>
        <mxCell id="N67g6IdkrzltrkVz4wu8-47" value="does it contain letters?" style="rhombus;whiteSpace=wrap;html=1;" vertex="1" parent="1">
          <mxGeometry x="1435" y="360" width="100" height="105" as="geometry" />
        </mxCell>
        <mxCell id="N67g6IdkrzltrkVz4wu8-48" style="edgeStyle=orthogonalEdgeStyle;rounded=0;orthogonalLoop=1;jettySize=auto;html=1;entryX=1;entryY=0.5;entryDx=0;entryDy=0;" edge="1" source="N67g6IdkrzltrkVz4wu8-49" target="N67g6IdkrzltrkVz4wu8-44" parent="1">
          <mxGeometry relative="1" as="geometry">
            <mxPoint x="1665" y="270" as="targetPoint" />
            <mxPoint x="1665" y="380" as="sourcePoint" />
            <Array as="points">
              <mxPoint x="1705" y="270" />
              <mxPoint x="1540" y="270" />
            </Array>
          </mxGeometry>
        </mxCell>
        <mxCell id="N67g6IdkrzltrkVz4wu8-49" value="display error input contains letters" style="whiteSpace=wrap;html=1;" vertex="1" parent="1">
          <mxGeometry x="1635" y="385" width="120" height="60" as="geometry" />
        </mxCell>
        <mxCell id="N67g6IdkrzltrkVz4wu8-50" value="&lt;div&gt;yes&lt;/div&gt;&lt;div&gt;&lt;br&gt;&lt;/div&gt;" style="text;html=1;align=center;verticalAlign=middle;resizable=0;points=[];autosize=1;strokeColor=none;fillColor=none;" vertex="1" parent="1">
          <mxGeometry x="1555" y="380" width="40" height="40" as="geometry" />
        </mxCell>
        <mxCell id="N67g6IdkrzltrkVz4wu8-51" value="" style="edgeStyle=orthogonalEdgeStyle;rounded=0;orthogonalLoop=1;jettySize=auto;html=1;" edge="1" source="N67g6IdkrzltrkVz4wu8-53" target="N67g6IdkrzltrkVz4wu8-55" parent="1">
          <mxGeometry relative="1" as="geometry" />
        </mxCell>
        <mxCell id="N67g6IdkrzltrkVz4wu8-52" value="" style="edgeStyle=orthogonalEdgeStyle;rounded=0;orthogonalLoop=1;jettySize=auto;html=1;" edge="1" source="N67g6IdkrzltrkVz4wu8-53" target="N67g6IdkrzltrkVz4wu8-58" parent="1">
          <mxGeometry relative="1" as="geometry" />
        </mxCell>
        <mxCell id="N67g6IdkrzltrkVz4wu8-53" value="is it 16 digits long?" style="rhombus;whiteSpace=wrap;html=1;" vertex="1" parent="1">
          <mxGeometry x="1440" y="554" width="90" height="92.5" as="geometry" />
        </mxCell>
        <mxCell id="N67g6IdkrzltrkVz4wu8-54" style="edgeStyle=orthogonalEdgeStyle;rounded=0;orthogonalLoop=1;jettySize=auto;html=1;entryX=0.558;entryY=0.983;entryDx=0;entryDy=0;entryPerimeter=0;" edge="1" source="N67g6IdkrzltrkVz4wu8-55" target="N67g6IdkrzltrkVz4wu8-49" parent="1">
          <mxGeometry relative="1" as="geometry">
            <Array as="points">
              <mxPoint x="1705" y="444" />
            </Array>
          </mxGeometry>
        </mxCell>
        <mxCell id="N67g6IdkrzltrkVz4wu8-55" value="display error it is not 16 digits long" style="whiteSpace=wrap;html=1;" vertex="1" parent="1">
          <mxGeometry x="1635" y="570" width="120" height="60" as="geometry" />
        </mxCell>
        <mxCell id="N67g6IdkrzltrkVz4wu8-56" value="no" style="text;html=1;align=center;verticalAlign=middle;resizable=0;points=[];autosize=1;strokeColor=none;fillColor=none;" vertex="1" parent="1">
          <mxGeometry x="1545" y="565" width="40" height="30" as="geometry" />
        </mxCell>
        <mxCell id="N67g6IdkrzltrkVz4wu8-57" value="" style="edgeStyle=orthogonalEdgeStyle;rounded=0;orthogonalLoop=1;jettySize=auto;html=1;" edge="1" source="N67g6IdkrzltrkVz4wu8-58" target="N67g6IdkrzltrkVz4wu8-61" parent="1">
          <mxGeometry relative="1" as="geometry" />
        </mxCell>
        <mxCell id="N67g6IdkrzltrkVz4wu8-58" value="luhns algorithm check" style="whiteSpace=wrap;html=1;" vertex="1" parent="1">
          <mxGeometry x="1425" y="742.75" width="120" height="60" as="geometry" />
        </mxCell>
        <mxCell id="N67g6IdkrzltrkVz4wu8-59" value="" style="edgeStyle=orthogonalEdgeStyle;rounded=0;orthogonalLoop=1;jettySize=auto;html=1;" edge="1" source="N67g6IdkrzltrkVz4wu8-61" target="N67g6IdkrzltrkVz4wu8-63" parent="1">
          <mxGeometry relative="1" as="geometry" />
        </mxCell>
        <mxCell id="N67g6IdkrzltrkVz4wu8-60" value="" style="edgeStyle=orthogonalEdgeStyle;rounded=0;orthogonalLoop=1;jettySize=auto;html=1;" edge="1" source="N67g6IdkrzltrkVz4wu8-61" target="N67g6IdkrzltrkVz4wu8-65" parent="1">
          <mxGeometry relative="1" as="geometry" />
        </mxCell>
        <mxCell id="N67g6IdkrzltrkVz4wu8-61" value="is card valid?" style="rhombus;whiteSpace=wrap;html=1;" vertex="1" parent="1">
          <mxGeometry x="1445" y="872.75" width="80" height="80" as="geometry" />
        </mxCell>
        <mxCell id="N67g6IdkrzltrkVz4wu8-62" style="edgeStyle=orthogonalEdgeStyle;rounded=0;orthogonalLoop=1;jettySize=auto;html=1;entryX=0.5;entryY=0;entryDx=0;entryDy=0;" edge="1" source="N67g6IdkrzltrkVz4wu8-63" target="N67g6IdkrzltrkVz4wu8-66" parent="1">
          <mxGeometry relative="1" as="geometry" />
        </mxCell>
        <mxCell id="N67g6IdkrzltrkVz4wu8-63" value="output card isnt valid message" style="whiteSpace=wrap;html=1;" vertex="1" parent="1">
          <mxGeometry x="1645" y="882.75" width="120" height="60" as="geometry" />
        </mxCell>
        <mxCell id="N67g6IdkrzltrkVz4wu8-64" style="edgeStyle=orthogonalEdgeStyle;rounded=0;orthogonalLoop=1;jettySize=auto;html=1;" edge="1" source="N67g6IdkrzltrkVz4wu8-65" parent="1">
          <mxGeometry relative="1" as="geometry">
            <mxPoint x="1645" y="1072.75" as="targetPoint" />
          </mxGeometry>
        </mxCell>
        <mxCell id="N67g6IdkrzltrkVz4wu8-65" value="output card is valid message " style="whiteSpace=wrap;html=1;" vertex="1" parent="1">
          <mxGeometry x="1425" y="1042.75" width="120" height="60" as="geometry" />
        </mxCell>
        <mxCell id="N67g6IdkrzltrkVz4wu8-66" value="end" style="ellipse;whiteSpace=wrap;html=1;" vertex="1" parent="1">
          <mxGeometry x="1645" y="1042.75" width="120" height="60" as="geometry" />
        </mxCell>
      </root>
    </mxGraphModel>
  </diagram>
</mxfile>
